<svg xmlns="http://www.w3.org/2000/svg" xmlns:xlink="http://www.w3.org/1999/xlink" width="1080" zoomAndPan="magnify" viewBox="0 0 810 254.250006" height="339" preserveAspectRatio="xMidYMid meet" version="1.0"><defs><clipPath id="665a151121"><path d="M 1.191406 0 L 808.808594 0 L 808.808594 253.503906 L 1.191406 253.503906 Z M 1.191406 0 " clip-rule="nonzero"/></clipPath><clipPath id="12c3efb8d7"><path d="M 771 55 L 808.808594 55 L 808.808594 106 L 771 106 Z M 771 55 " clip-rule="nonzero"/></clipPath><clipPath id="9352899d44"><path d="M 760.789062 44.871094 L 773 44.871094 L 773 116.605469 L 760.789062 116.605469 Z M 760.789062 44.871094 " clip-rule="nonzero"/></clipPath><clipPath id="08069dbbb5"><path d="M 781 66 L 808.808594 66 L 808.808594 96 L 781 96 Z M 781 66 " clip-rule="nonzero"/></clipPath><clipPath id="310f98fe3c"><path d="M 574.460938 44.871094 L 587 44.871094 L 587 116.605469 L 574.460938 116.605469 Z M 574.460938 44.871094 " clip-rule="nonzero"/></clipPath><clipPath id="8ae65b2968"><path d="M 636 44.871094 L 646.199219 44.871094 L 646.199219 116.605469 L 636 116.605469 Z M 636 44.871094 " clip-rule="nonzero"/></clipPath><clipPath id="ac0bad8edd"><path d="M 15.9375 44.871094 L 28 44.871094 L 28 116.605469 L 15.9375 116.605469 Z M 15.9375 44.871094 " clip-rule="nonzero"/></clipPath><clipPath id="c7b5ee0844"><path d="M 78 44.871094 L 87.675781 44.871094 L 87.675781 116.605469 L 78 116.605469 Z M 78 44.871094 " clip-rule="nonzero"/></clipPath><clipPath id="f3c3812ff8"><path d="M 201.8125 44.871094 L 214 44.871094 L 214 116.605469 L 201.8125 116.605469 Z M 201.8125 44.871094 " clip-rule="nonzero"/></clipPath><clipPath id="15a476a8c1"><path d="M 263 44.871094 L 273.546875 44.871094 L 273.546875 116.605469 L 263 116.605469 Z M 263 44.871094 " clip-rule="nonzero"/></clipPath><clipPath id="5f8d40ce60"><path d="M 388.136719 44.871094 L 401 44.871094 L 401 116.605469 L 388.136719 116.605469 Z M 388.136719 44.871094 " clip-rule="nonzero"/></clipPath><clipPath id="ba9d53fca2"><path d="M 450 44.871094 L 459.871094 44.871094 L 459.871094 116.605469 L 450 116.605469 Z M 450 44.871094 " clip-rule="nonzero"/></clipPath><clipPath id="b2304c22b9"><path d="M 111.496094 136.890625 L 124 136.890625 L 124 208.625 L 111.496094 208.625 Z M 111.496094 136.890625 " clip-rule="nonzero"/></clipPath><clipPath id="3091d01526"><path d="M 173 136.890625 L 183.230469 136.890625 L 183.230469 208.625 L 173 208.625 Z M 173 136.890625 " clip-rule="nonzero"/></clipPath><clipPath id="6391a389db"><path d="M 297.820312 136.890625 L 310 136.890625 L 310 208.625 L 297.820312 208.625 Z M 297.820312 136.890625 " clip-rule="nonzero"/></clipPath><clipPath id="232d51fe69"><path d="M 359 136.890625 L 369.554688 136.890625 L 369.554688 208.625 L 359 208.625 Z M 359 136.890625 " clip-rule="nonzero"/></clipPath><clipPath id="124deceac3"><path d="M 483.691406 136.890625 L 496 136.890625 L 496 208.625 L 483.691406 208.625 Z M 483.691406 136.890625 " clip-rule="nonzero"/></clipPath><clipPath id="f045b9d918"><path d="M 545 136.890625 L 555.429688 136.890625 L 555.429688 208.625 L 545 208.625 Z M 545 136.890625 " clip-rule="nonzero"/></clipPath><clipPath id="275e9de0b7"><path d="M 670.019531 136.890625 L 682 136.890625 L 682 208.625 L 670.019531 208.625 Z M 670.019531 136.890625 " clip-rule="nonzero"/></clipPath><clipPath id="b906b210a0"><path d="M 732 136.890625 L 741.753906 136.890625 L 741.753906 208.625 L 732 208.625 Z M 732 136.890625 " clip-rule="nonzero"/></clipPath></defs><g clip-path="url(#665a151121)"><path fill="#ffffff" d="M 1.191406 0 L 808.808594 0 L 808.808594 253.503906 L 1.191406 253.503906 Z M 1.191406 0 " fill-opacity="1" fill-rule="nonzero"/><path fill="#fffff3" d="M 1.191406 0 L 808.808594 0 L 808.808594 253.503906 L 1.191406 253.503906 Z M 1.191406 0 " fill-opacity="1" fill-rule="nonzero"/></g><g clip-path="url(#12c3efb8d7)"><path fill="#ffd5dc" d="M 796.65625 103.453125 C 784.128906 103.453125 773.9375 93.265625 773.9375 80.738281 C 773.9375 68.210938 784.128906 58.023438 796.65625 58.023438 C 809.179688 58.023438 819.371094 68.210938 819.371094 80.738281 C 819.371094 93.265625 809.179688 103.453125 796.65625 103.453125 Z M 796.65625 55.628906 C 782.8125 55.628906 771.546875 66.894531 771.546875 80.738281 C 771.546875 94.582031 782.8125 105.84375 796.65625 105.84375 C 810.5 105.84375 821.761719 94.582031 821.761719 80.738281 C 821.761719 66.894531 810.5 55.628906 796.65625 55.628906 " fill-opacity="1" fill-rule="nonzero"/></g><g clip-path="url(#9352899d44)"><path fill="#ffd5dc" d="M 767.960938 113.019531 C 767.960938 113.679688 767.425781 114.214844 766.765625 114.214844 C 766.105469 114.214844 765.570312 113.679688 765.570312 113.019531 L 765.570312 95.085938 L 767.960938 95.085938 Z M 770.351562 44.871094 L 770.351562 64 C 770.351562 64.65625 769.816406 65.195312 769.15625 65.195312 L 767.960938 65.195312 L 767.960938 44.871094 L 765.570312 44.871094 L 765.570312 65.195312 L 764.375 65.195312 C 763.714844 65.195312 763.179688 64.65625 763.179688 64 L 763.179688 44.871094 L 760.789062 44.871094 L 760.789062 64 C 760.789062 65.96875 762.402344 67.585938 764.375 67.585938 L 765.570312 67.585938 L 765.570312 92.695312 L 764.375 92.695312 C 763.714844 92.695312 763.179688 93.230469 763.179688 93.890625 L 763.179688 113.019531 C 763.179688 114.988281 764.792969 116.605469 766.765625 116.605469 C 768.734375 116.605469 770.351562 114.988281 770.351562 113.019531 L 770.351562 93.890625 C 770.351562 93.230469 769.816406 92.695312 769.15625 92.695312 L 767.960938 92.695312 L 767.960938 67.585938 L 769.15625 67.585938 C 771.132812 67.585938 772.742188 65.96875 772.742188 64 L 772.742188 44.871094 L 770.351562 44.871094 " fill-opacity="1" fill-rule="nonzero"/></g><g clip-path="url(#08069dbbb5)"><path fill="#ffd5dc" d="M 796.652344 92.375 C 792.402344 89.023438 783.503906 80.769531 783.503906 74.761719 C 783.503906 71.460938 786.183594 68.78125 789.480469 68.78125 C 792.777344 68.78125 795.460938 71.460938 795.460938 74.761719 C 795.460938 75.417969 795.996094 75.957031 796.65625 75.957031 C 797.3125 75.957031 797.851562 75.417969 797.851562 74.761719 C 797.851562 71.460938 800.53125 68.78125 803.828125 68.78125 C 807.125 68.78125 809.808594 71.460938 809.808594 74.761719 C 809.808594 81.414062 799.484375 90.113281 796.652344 92.375 Z M 803.828125 66.390625 C 800.789062 66.390625 798.121094 68.019531 796.65625 70.453125 C 795.1875 68.019531 792.523438 66.390625 789.480469 66.390625 C 784.867188 66.390625 781.113281 70.144531 781.113281 74.761719 C 781.113281 83.625 795.332031 94.394531 795.941406 94.847656 C 796.152344 95.007812 796.402344 95.085938 796.65625 95.085938 C 796.90625 95.085938 797.160156 95.007812 797.371094 94.847656 C 797.976562 94.394531 812.199219 83.625 812.199219 74.761719 C 812.199219 70.144531 808.441406 66.390625 803.828125 66.390625 " fill-opacity="1" fill-rule="nonzero"/></g><path fill="#ffd5dc" d="M 610.332031 103.453125 C 597.804688 103.453125 587.613281 93.265625 587.613281 80.738281 C 587.613281 68.210938 597.804688 58.023438 610.332031 58.023438 C 622.855469 58.023438 633.046875 68.210938 633.046875 80.738281 C 633.046875 93.265625 622.855469 103.453125 610.332031 103.453125 Z M 610.332031 55.628906 C 596.488281 55.628906 585.222656 66.894531 585.222656 80.738281 C 585.222656 94.582031 596.488281 105.84375 610.332031 105.84375 C 624.171875 105.84375 635.4375 94.582031 635.4375 80.738281 C 635.4375 66.894531 624.171875 55.628906 610.332031 55.628906 " fill-opacity="1" fill-rule="nonzero"/><g clip-path="url(#310f98fe3c)"><path fill="#ffd5dc" d="M 581.636719 113.019531 C 581.636719 113.679688 581.097656 114.214844 580.441406 114.214844 C 579.78125 114.214844 579.246094 113.679688 579.246094 113.019531 L 579.246094 95.085938 L 581.636719 95.085938 Z M 584.027344 44.871094 L 584.027344 64 C 584.027344 64.65625 583.488281 65.195312 582.832031 65.195312 L 581.636719 65.195312 L 581.636719 44.871094 L 579.246094 44.871094 L 579.246094 65.195312 L 578.050781 65.195312 C 577.390625 65.195312 576.855469 64.65625 576.855469 64 L 576.855469 44.871094 L 574.460938 44.871094 L 574.460938 64 C 574.460938 65.96875 576.078125 67.585938 578.050781 67.585938 L 579.246094 67.585938 L 579.246094 92.695312 L 578.050781 92.695312 C 577.390625 92.695312 576.855469 93.230469 576.855469 93.890625 L 576.855469 113.019531 C 576.855469 114.988281 578.46875 116.605469 580.441406 116.605469 C 582.410156 116.605469 584.027344 114.988281 584.027344 113.019531 L 584.027344 93.890625 C 584.027344 93.230469 583.488281 92.695312 582.832031 92.695312 L 581.636719 92.695312 L 581.636719 67.585938 L 582.832031 67.585938 C 584.808594 67.585938 586.417969 65.96875 586.417969 64 L 586.417969 44.871094 L 584.027344 44.871094 " fill-opacity="1" fill-rule="nonzero"/></g><g clip-path="url(#8ae65b2968)"><path fill="#ffd5dc" d="M 643.808594 90.304688 L 639.023438 90.304688 L 639.023438 53.238281 C 639.023438 50.359375 641.078125 47.929688 643.808594 47.382812 Z M 643.808594 113.019531 C 643.808594 113.679688 643.269531 114.214844 642.613281 114.214844 C 641.953125 114.214844 641.414062 113.679688 641.414062 113.019531 L 641.414062 92.695312 L 643.808594 92.695312 Z M 645.003906 44.871094 C 640.386719 44.871094 636.632812 48.625 636.632812 53.238281 L 636.632812 91.5 C 636.632812 92.15625 637.171875 92.695312 637.828125 92.695312 L 639.023438 92.695312 L 639.023438 113.019531 C 639.023438 114.988281 640.636719 116.605469 642.613281 116.605469 C 644.585938 116.605469 646.199219 114.988281 646.199219 113.019531 L 646.199219 46.066406 C 646.199219 45.40625 645.660156 44.871094 645.003906 44.871094 " fill-opacity="1" fill-rule="nonzero"/></g><path fill="#ffd5dc" d="M 610.324219 92.375 C 606.074219 89.023438 597.179688 80.769531 597.179688 74.761719 C 597.179688 71.460938 599.859375 68.78125 603.15625 68.78125 C 606.453125 68.78125 609.132812 71.460938 609.132812 74.761719 C 609.132812 75.417969 609.671875 75.957031 610.332031 75.957031 C 610.988281 75.957031 611.527344 75.417969 611.527344 74.761719 C 611.527344 71.460938 614.207031 68.78125 617.503906 68.78125 C 620.800781 68.78125 623.480469 71.460938 623.480469 74.761719 C 623.480469 81.414062 613.160156 90.113281 610.324219 92.375 Z M 617.503906 66.390625 C 614.464844 66.390625 611.796875 68.019531 610.332031 70.453125 C 608.863281 68.019531 606.195312 66.390625 603.15625 66.390625 C 598.542969 66.390625 594.789062 70.144531 594.789062 74.761719 C 594.789062 83.625 609.007812 94.394531 609.617188 94.847656 C 609.824219 95.007812 610.078125 95.085938 610.332031 95.085938 C 610.582031 95.085938 610.835938 95.007812 611.042969 94.847656 C 611.652344 94.394531 625.875 83.625 625.875 74.761719 C 625.875 70.144531 622.117188 66.390625 617.503906 66.390625 " fill-opacity="1" fill-rule="nonzero"/><path fill="#ffd5dc" d="M 51.804688 103.453125 C 39.28125 103.453125 29.089844 93.265625 29.089844 80.738281 C 29.089844 68.210938 39.28125 58.023438 51.804688 58.023438 C 64.332031 58.023438 74.523438 68.210938 74.523438 80.738281 C 74.523438 93.265625 64.332031 103.453125 51.804688 103.453125 Z M 51.804688 55.628906 C 37.964844 55.628906 26.699219 66.894531 26.699219 80.738281 C 26.699219 94.582031 37.964844 105.84375 51.804688 105.84375 C 65.648438 105.84375 76.914062 94.582031 76.914062 80.738281 C 76.914062 66.894531 65.648438 55.628906 51.804688 55.628906 " fill-opacity="1" fill-rule="nonzero"/><g clip-path="url(#ac0bad8edd)"><path fill="#ffd5dc" d="M 23.113281 113.019531 C 23.113281 113.679688 22.574219 114.214844 21.917969 114.214844 C 21.257812 114.214844 20.722656 113.679688 20.722656 113.019531 L 20.722656 95.085938 L 23.113281 95.085938 Z M 25.503906 44.871094 L 25.503906 64 C 25.503906 64.65625 24.964844 65.195312 24.308594 65.195312 L 23.113281 65.195312 L 23.113281 44.871094 L 20.722656 44.871094 L 20.722656 65.195312 L 19.523438 65.195312 C 18.867188 65.195312 18.328125 64.65625 18.328125 64 L 18.328125 44.871094 L 15.9375 44.871094 L 15.9375 64 C 15.9375 65.96875 17.554688 67.585938 19.523438 67.585938 L 20.722656 67.585938 L 20.722656 92.695312 L 19.523438 92.695312 C 18.867188 92.695312 18.328125 93.230469 18.328125 93.890625 L 18.328125 113.019531 C 18.328125 114.988281 19.945312 116.605469 21.917969 116.605469 C 23.886719 116.605469 25.503906 114.988281 25.503906 113.019531 L 25.503906 93.890625 C 25.503906 93.230469 24.964844 92.695312 24.308594 92.695312 L 23.113281 92.695312 L 23.113281 67.585938 L 24.308594 67.585938 C 26.28125 67.585938 27.894531 65.96875 27.894531 64 L 27.894531 44.871094 L 25.503906 44.871094 " fill-opacity="1" fill-rule="nonzero"/></g><g clip-path="url(#c7b5ee0844)"><path fill="#ffd5dc" d="M 85.28125 90.304688 L 80.5 90.304688 L 80.5 53.238281 C 80.5 50.359375 82.554688 47.929688 85.28125 47.382812 Z M 85.28125 113.019531 C 85.28125 113.679688 84.746094 114.214844 84.085938 114.214844 C 83.429688 114.214844 82.890625 113.679688 82.890625 113.019531 L 82.890625 92.695312 L 85.28125 92.695312 Z M 86.480469 44.871094 C 81.863281 44.871094 78.109375 48.625 78.109375 53.238281 L 78.109375 91.5 C 78.109375 92.15625 78.648438 92.695312 79.304688 92.695312 L 80.5 92.695312 L 80.5 113.019531 C 80.5 114.988281 82.113281 116.605469 84.085938 116.605469 C 86.0625 116.605469 87.675781 114.988281 87.675781 113.019531 L 87.675781 46.066406 C 87.675781 45.40625 87.136719 44.871094 86.480469 44.871094 " fill-opacity="1" fill-rule="nonzero"/></g><path fill="#ffd5dc" d="M 51.800781 92.375 C 47.550781 89.023438 38.65625 80.769531 38.65625 74.761719 C 38.65625 71.460938 41.335938 68.78125 44.632812 68.78125 C 47.929688 68.78125 50.609375 71.460938 50.609375 74.761719 C 50.609375 75.417969 51.148438 75.957031 51.804688 75.957031 C 52.464844 75.957031 53.003906 75.417969 53.003906 74.761719 C 53.003906 71.460938 55.683594 68.78125 58.980469 68.78125 C 62.277344 68.78125 64.957031 71.460938 64.957031 74.761719 C 64.957031 81.414062 54.636719 90.113281 51.800781 92.375 Z M 58.980469 66.390625 C 55.941406 66.390625 53.273438 68.019531 51.804688 70.453125 C 50.339844 68.019531 47.671875 66.390625 44.632812 66.390625 C 40.019531 66.390625 36.261719 70.144531 36.261719 74.761719 C 36.261719 83.625 50.484375 94.394531 51.09375 94.847656 C 51.300781 95.007812 51.554688 95.085938 51.804688 95.085938 C 52.058594 95.085938 52.3125 95.007812 52.519531 94.847656 C 53.128906 94.394531 67.347656 83.625 67.347656 74.761719 C 67.347656 70.144531 63.59375 66.390625 58.980469 66.390625 " fill-opacity="1" fill-rule="nonzero"/><path fill="#ffd5dc" d="M 237.679688 103.453125 C 225.15625 103.453125 214.964844 93.265625 214.964844 80.738281 C 214.964844 68.210938 225.15625 58.023438 237.679688 58.023438 C 250.207031 58.023438 260.398438 68.210938 260.398438 80.738281 C 260.398438 93.265625 250.207031 103.453125 237.679688 103.453125 Z M 237.679688 55.628906 C 223.835938 55.628906 212.574219 66.894531 212.574219 80.738281 C 212.574219 94.582031 223.835938 105.84375 237.679688 105.84375 C 251.523438 105.84375 262.789062 94.582031 262.789062 80.738281 C 262.789062 66.894531 251.523438 55.628906 237.679688 55.628906 " fill-opacity="1" fill-rule="nonzero"/><g clip-path="url(#f3c3812ff8)"><path fill="#ffd5dc" d="M 208.984375 113.019531 C 208.984375 113.679688 208.449219 114.214844 207.789062 114.214844 C 207.132812 114.214844 206.59375 113.679688 206.59375 113.019531 L 206.59375 95.085938 L 208.984375 95.085938 Z M 211.378906 44.871094 L 211.378906 64 C 211.378906 64.65625 210.839844 65.195312 210.179688 65.195312 L 208.984375 65.195312 L 208.984375 44.871094 L 206.59375 44.871094 L 206.59375 65.195312 L 205.398438 65.195312 C 204.742188 65.195312 204.203125 64.65625 204.203125 64 L 204.203125 44.871094 L 201.8125 44.871094 L 201.8125 64 C 201.8125 65.96875 203.429688 67.585938 205.398438 67.585938 L 206.59375 67.585938 L 206.59375 92.695312 L 205.398438 92.695312 C 204.742188 92.695312 204.203125 93.230469 204.203125 93.890625 L 204.203125 113.019531 C 204.203125 114.988281 205.820312 116.605469 207.789062 116.605469 C 209.761719 116.605469 211.378906 114.988281 211.378906 113.019531 L 211.378906 93.890625 C 211.378906 93.230469 210.839844 92.695312 210.179688 92.695312 L 208.984375 92.695312 L 208.984375 67.585938 L 210.179688 67.585938 C 212.15625 67.585938 213.769531 65.96875 213.769531 64 L 213.769531 44.871094 L 211.378906 44.871094 " fill-opacity="1" fill-rule="nonzero"/></g><g clip-path="url(#15a476a8c1)"><path fill="#ffd5dc" d="M 271.15625 90.304688 L 266.375 90.304688 L 266.375 53.238281 C 266.375 50.359375 268.429688 47.929688 271.15625 47.382812 Z M 271.15625 113.019531 C 271.15625 113.679688 270.621094 114.214844 269.960938 114.214844 C 269.304688 114.214844 268.765625 113.679688 268.765625 113.019531 L 268.765625 92.695312 L 271.15625 92.695312 Z M 272.351562 44.871094 C 267.738281 44.871094 263.984375 48.625 263.984375 53.238281 L 263.984375 91.5 C 263.984375 92.15625 264.519531 92.695312 265.179688 92.695312 L 266.375 92.695312 L 266.375 113.019531 C 266.375 114.988281 267.984375 116.605469 269.960938 116.605469 C 271.9375 116.605469 273.546875 114.988281 273.546875 113.019531 L 273.546875 46.066406 C 273.546875 45.40625 273.011719 44.871094 272.351562 44.871094 " fill-opacity="1" fill-rule="nonzero"/></g><path fill="#ffd5dc" d="M 237.675781 92.375 C 233.425781 89.023438 224.527344 80.769531 224.527344 74.761719 C 224.527344 71.460938 227.210938 68.78125 230.507812 68.78125 C 233.804688 68.78125 236.484375 71.460938 236.484375 74.761719 C 236.484375 75.417969 237.023438 75.957031 237.679688 75.957031 C 238.339844 75.957031 238.875 75.417969 238.875 74.761719 C 238.875 71.460938 241.554688 68.78125 244.855469 68.78125 C 248.152344 68.78125 250.832031 71.460938 250.832031 74.761719 C 250.832031 81.414062 240.511719 90.113281 237.675781 92.375 Z M 244.855469 66.390625 C 241.8125 66.390625 239.148438 68.019531 237.679688 70.453125 C 236.214844 68.019531 233.546875 66.390625 230.507812 66.390625 C 225.890625 66.390625 222.136719 70.144531 222.136719 74.761719 C 222.136719 83.625 236.359375 94.394531 236.964844 94.847656 C 237.175781 95.007812 237.429688 95.085938 237.679688 95.085938 C 237.933594 95.085938 238.183594 95.007812 238.394531 94.847656 C 239 94.394531 253.222656 83.625 253.222656 74.761719 C 253.222656 70.144531 249.46875 66.390625 244.855469 66.390625 " fill-opacity="1" fill-rule="nonzero"/><path fill="#ffd5dc" d="M 424.003906 103.453125 C 411.480469 103.453125 401.289062 93.265625 401.289062 80.738281 C 401.289062 68.210938 411.480469 58.023438 424.003906 58.023438 C 436.53125 58.023438 446.722656 68.210938 446.722656 80.738281 C 446.722656 93.265625 436.53125 103.453125 424.003906 103.453125 Z M 424.003906 55.628906 C 410.164062 55.628906 398.898438 66.894531 398.898438 80.738281 C 398.898438 94.582031 410.164062 105.84375 424.003906 105.84375 C 437.847656 105.84375 449.113281 94.582031 449.113281 80.738281 C 449.113281 66.894531 437.847656 55.628906 424.003906 55.628906 " fill-opacity="1" fill-rule="nonzero"/><g clip-path="url(#5f8d40ce60)"><path fill="#ffd5dc" d="M 395.3125 113.019531 C 395.3125 113.679688 394.773438 114.214844 394.113281 114.214844 C 393.457031 114.214844 392.917969 113.679688 392.917969 113.019531 L 392.917969 95.085938 L 395.3125 95.085938 Z M 397.703125 44.871094 L 397.703125 64 C 397.703125 64.65625 397.164062 65.195312 396.507812 65.195312 L 395.3125 65.195312 L 395.3125 44.871094 L 392.917969 44.871094 L 392.917969 65.195312 L 391.722656 65.195312 C 391.066406 65.195312 390.527344 64.65625 390.527344 64 L 390.527344 44.871094 L 388.136719 44.871094 L 388.136719 64 C 388.136719 65.96875 389.753906 67.585938 391.722656 67.585938 L 392.917969 67.585938 L 392.917969 92.695312 L 391.722656 92.695312 C 391.066406 92.695312 390.527344 93.230469 390.527344 93.890625 L 390.527344 113.019531 C 390.527344 114.988281 392.144531 116.605469 394.113281 116.605469 C 396.085938 116.605469 397.703125 114.988281 397.703125 113.019531 L 397.703125 93.890625 C 397.703125 93.230469 397.164062 92.695312 396.507812 92.695312 L 395.3125 92.695312 L 395.3125 67.585938 L 396.507812 67.585938 C 398.480469 67.585938 400.09375 65.96875 400.09375 64 L 400.09375 44.871094 L 397.703125 44.871094 " fill-opacity="1" fill-rule="nonzero"/></g><g clip-path="url(#ba9d53fca2)"><path fill="#ffd5dc" d="M 457.480469 90.304688 L 452.699219 90.304688 L 452.699219 53.238281 C 452.699219 50.359375 454.753906 47.929688 457.480469 47.382812 Z M 457.480469 113.019531 C 457.480469 113.679688 456.945312 114.214844 456.285156 114.214844 C 455.628906 114.214844 455.089844 113.679688 455.089844 113.019531 L 455.089844 92.695312 L 457.480469 92.695312 Z M 458.675781 44.871094 C 454.0625 44.871094 450.308594 48.625 450.308594 53.238281 L 450.308594 91.5 C 450.308594 92.15625 450.84375 92.695312 451.503906 92.695312 L 452.699219 92.695312 L 452.699219 113.019531 C 452.699219 114.988281 454.3125 116.605469 456.285156 116.605469 C 458.261719 116.605469 459.875 114.988281 459.875 113.019531 L 459.875 46.066406 C 459.875 45.40625 459.335938 44.871094 458.675781 44.871094 " fill-opacity="1" fill-rule="nonzero"/></g><path fill="#ffd5dc" d="M 424 92.375 C 419.75 89.023438 410.855469 80.769531 410.855469 74.761719 C 410.855469 71.460938 413.535156 68.78125 416.832031 68.78125 C 420.128906 68.78125 422.808594 71.460938 422.808594 74.761719 C 422.808594 75.417969 423.347656 75.957031 424.003906 75.957031 C 424.664062 75.957031 425.199219 75.417969 425.199219 74.761719 C 425.199219 71.460938 427.882812 68.78125 431.179688 68.78125 C 434.476562 68.78125 437.15625 71.460938 437.15625 74.761719 C 437.15625 81.414062 426.835938 90.113281 424 92.375 Z M 431.179688 66.390625 C 428.136719 66.390625 425.472656 68.019531 424.003906 70.453125 C 422.539062 68.019531 419.871094 66.390625 416.832031 66.390625 C 412.21875 66.390625 408.460938 70.144531 408.460938 74.761719 C 408.460938 83.625 422.683594 94.394531 423.289062 94.847656 C 423.5 95.007812 423.753906 95.085938 424.003906 95.085938 C 424.257812 95.085938 424.507812 95.007812 424.71875 94.847656 C 425.328125 94.394531 439.546875 83.625 439.546875 74.761719 C 439.546875 70.144531 435.792969 66.390625 431.179688 66.390625 " fill-opacity="1" fill-rule="nonzero"/><path fill="#ffd5dc" d="M 147.363281 195.476562 C 134.835938 195.476562 124.644531 185.285156 124.644531 172.757812 C 124.644531 160.234375 134.835938 150.042969 147.363281 150.042969 C 159.886719 150.042969 170.078125 160.234375 170.078125 172.757812 C 170.078125 185.285156 159.886719 195.476562 147.363281 195.476562 Z M 147.363281 147.652344 C 133.519531 147.652344 122.253906 158.914062 122.253906 172.757812 C 122.253906 186.601562 133.519531 197.867188 147.363281 197.867188 C 161.207031 197.867188 172.46875 186.601562 172.46875 172.757812 C 172.46875 158.914062 161.207031 147.652344 147.363281 147.652344 " fill-opacity="1" fill-rule="nonzero"/><g clip-path="url(#b2304c22b9)"><path fill="#ffd5dc" d="M 118.667969 205.039062 C 118.667969 205.699219 118.132812 206.234375 117.472656 206.234375 C 116.8125 206.234375 116.277344 205.699219 116.277344 205.039062 L 116.277344 187.105469 L 118.667969 187.105469 Z M 121.058594 136.890625 L 121.058594 156.019531 C 121.058594 156.679688 120.523438 157.214844 119.863281 157.214844 L 118.667969 157.214844 L 118.667969 136.890625 L 116.277344 136.890625 L 116.277344 157.214844 L 115.082031 157.214844 C 114.421875 157.214844 113.886719 156.679688 113.886719 156.019531 L 113.886719 136.890625 L 111.496094 136.890625 L 111.496094 156.019531 C 111.496094 157.992188 113.109375 159.605469 115.082031 159.605469 L 116.277344 159.605469 L 116.277344 184.714844 L 115.082031 184.714844 C 114.421875 184.714844 113.886719 185.25 113.886719 185.910156 L 113.886719 205.039062 C 113.886719 207.011719 115.5 208.625 117.472656 208.625 C 119.445312 208.625 121.058594 207.011719 121.058594 205.039062 L 121.058594 185.910156 C 121.058594 185.25 120.523438 184.714844 119.863281 184.714844 L 118.667969 184.714844 L 118.667969 159.605469 L 119.863281 159.605469 C 121.839844 159.605469 123.449219 157.992188 123.449219 156.019531 L 123.449219 136.890625 L 121.058594 136.890625 " fill-opacity="1" fill-rule="nonzero"/></g><g clip-path="url(#3091d01526)"><path fill="#ffd5dc" d="M 180.839844 182.324219 L 176.058594 182.324219 L 176.058594 145.257812 C 176.058594 142.378906 178.113281 139.949219 180.839844 139.402344 Z M 180.839844 205.039062 C 180.839844 205.699219 180.300781 206.234375 179.644531 206.234375 C 178.984375 206.234375 178.449219 205.699219 178.449219 205.039062 L 178.449219 184.714844 L 180.839844 184.714844 Z M 182.035156 136.890625 C 177.421875 136.890625 173.664062 140.644531 173.664062 145.257812 L 173.664062 183.519531 C 173.664062 184.175781 174.203125 184.714844 174.863281 184.714844 L 176.058594 184.714844 L 176.058594 205.039062 C 176.058594 207.011719 177.667969 208.625 179.644531 208.625 C 181.621094 208.625 183.230469 207.011719 183.230469 205.039062 L 183.230469 138.085938 C 183.230469 137.425781 182.695312 136.890625 182.035156 136.890625 " fill-opacity="1" fill-rule="nonzero"/></g><path fill="#ffd5dc" d="M 147.359375 184.398438 C 143.109375 181.042969 134.210938 172.792969 134.210938 166.78125 C 134.210938 163.484375 136.890625 160.800781 140.1875 160.800781 C 143.484375 160.800781 146.167969 163.484375 146.167969 166.78125 C 146.167969 167.4375 146.703125 167.976562 147.363281 167.976562 C 148.019531 167.976562 148.558594 167.4375 148.558594 166.78125 C 148.558594 163.484375 151.238281 160.800781 154.535156 160.800781 C 157.832031 160.800781 160.515625 163.484375 160.515625 166.78125 C 160.515625 173.4375 150.191406 182.132812 147.359375 184.398438 Z M 154.535156 158.410156 C 151.496094 158.410156 148.828125 160.042969 147.363281 162.472656 C 145.894531 160.042969 143.230469 158.410156 140.1875 158.410156 C 135.574219 158.410156 131.820312 162.167969 131.820312 166.78125 C 131.820312 175.644531 146.039062 186.414062 146.648438 186.867188 C 146.859375 187.027344 147.109375 187.105469 147.363281 187.105469 C 147.613281 187.105469 147.867188 187.027344 148.078125 186.867188 C 148.683594 186.414062 162.90625 175.644531 162.90625 166.78125 C 162.90625 162.167969 159.152344 158.410156 154.535156 158.410156 " fill-opacity="1" fill-rule="nonzero"/><path fill="#ffd5dc" d="M 333.6875 195.476562 C 321.160156 195.476562 310.972656 185.285156 310.972656 172.757812 C 310.972656 160.234375 321.160156 150.042969 333.6875 150.042969 C 346.214844 150.042969 356.402344 160.234375 356.402344 172.757812 C 356.402344 185.285156 346.214844 195.476562 333.6875 195.476562 Z M 333.6875 147.652344 C 319.84375 147.652344 308.582031 158.914062 308.582031 172.757812 C 308.582031 186.601562 319.84375 197.867188 333.6875 197.867188 C 347.53125 197.867188 358.796875 186.601562 358.796875 172.757812 C 358.796875 158.914062 347.53125 147.652344 333.6875 147.652344 " fill-opacity="1" fill-rule="nonzero"/><g clip-path="url(#6391a389db)"><path fill="#ffd5dc" d="M 304.992188 205.039062 C 304.992188 205.699219 304.457031 206.234375 303.796875 206.234375 C 303.140625 206.234375 302.601562 205.699219 302.601562 205.039062 L 302.601562 187.105469 L 304.992188 187.105469 Z M 307.382812 136.890625 L 307.382812 156.019531 C 307.382812 156.679688 306.847656 157.214844 306.1875 157.214844 L 304.992188 157.214844 L 304.992188 136.890625 L 302.601562 136.890625 L 302.601562 157.214844 L 301.40625 157.214844 C 300.75 157.214844 300.210938 156.679688 300.210938 156.019531 L 300.210938 136.890625 L 297.820312 136.890625 L 297.820312 156.019531 C 297.820312 157.992188 299.4375 159.605469 301.40625 159.605469 L 302.601562 159.605469 L 302.601562 184.714844 L 301.40625 184.714844 C 300.75 184.714844 300.210938 185.25 300.210938 185.910156 L 300.210938 205.039062 C 300.210938 207.011719 301.828125 208.625 303.796875 208.625 C 305.769531 208.625 307.382812 207.011719 307.382812 205.039062 L 307.382812 185.910156 C 307.382812 185.25 306.847656 184.714844 306.1875 184.714844 L 304.992188 184.714844 L 304.992188 159.605469 L 306.1875 159.605469 C 308.164062 159.605469 309.777344 157.992188 309.777344 156.019531 L 309.777344 136.890625 L 307.382812 136.890625 " fill-opacity="1" fill-rule="nonzero"/></g><g clip-path="url(#232d51fe69)"><path fill="#ffd5dc" d="M 367.164062 182.324219 L 362.382812 182.324219 L 362.382812 145.257812 C 362.382812 142.378906 364.4375 139.949219 367.164062 139.402344 Z M 367.164062 205.039062 C 367.164062 205.699219 366.628906 206.234375 365.96875 206.234375 C 365.3125 206.234375 364.773438 205.699219 364.773438 205.039062 L 364.773438 184.714844 L 367.164062 184.714844 Z M 368.359375 136.890625 C 363.746094 136.890625 359.992188 140.644531 359.992188 145.257812 L 359.992188 183.519531 C 359.992188 184.175781 360.527344 184.714844 361.1875 184.714844 L 362.382812 184.714844 L 362.382812 205.039062 C 362.382812 207.011719 363.992188 208.625 365.96875 208.625 C 367.945312 208.625 369.554688 207.011719 369.554688 205.039062 L 369.554688 138.085938 C 369.554688 137.425781 369.019531 136.890625 368.359375 136.890625 " fill-opacity="1" fill-rule="nonzero"/></g><path fill="#ffd5dc" d="M 333.683594 184.398438 C 329.433594 181.042969 320.535156 172.792969 320.535156 166.78125 C 320.535156 163.484375 323.21875 160.800781 326.515625 160.800781 C 329.8125 160.800781 332.492188 163.484375 332.492188 166.78125 C 332.492188 167.4375 333.03125 167.976562 333.6875 167.976562 C 334.347656 167.976562 334.882812 167.4375 334.882812 166.78125 C 334.882812 163.484375 337.5625 160.800781 340.863281 160.800781 C 344.160156 160.800781 346.839844 163.484375 346.839844 166.78125 C 346.839844 173.4375 336.519531 182.132812 333.683594 184.398438 Z M 340.863281 158.410156 C 337.820312 158.410156 335.15625 160.042969 333.6875 162.472656 C 332.222656 160.042969 329.554688 158.410156 326.515625 158.410156 C 321.898438 158.410156 318.144531 162.167969 318.144531 166.78125 C 318.144531 175.644531 332.367188 186.414062 332.972656 186.867188 C 333.183594 187.027344 333.4375 187.105469 333.6875 187.105469 C 333.941406 187.105469 334.191406 187.027344 334.402344 186.867188 C 335.007812 186.414062 349.230469 175.644531 349.230469 166.78125 C 349.230469 162.167969 345.476562 158.410156 340.863281 158.410156 " fill-opacity="1" fill-rule="nonzero"/><path fill="#ffd5dc" d="M 519.5625 195.476562 C 507.035156 195.476562 496.84375 185.285156 496.84375 172.757812 C 496.84375 160.234375 507.035156 150.042969 519.5625 150.042969 C 532.085938 150.042969 542.277344 160.234375 542.277344 172.757812 C 542.277344 185.285156 532.085938 195.476562 519.5625 195.476562 Z M 519.5625 147.652344 C 505.71875 147.652344 494.453125 158.914062 494.453125 172.757812 C 494.453125 186.601562 505.71875 197.867188 519.5625 197.867188 C 533.402344 197.867188 544.667969 186.601562 544.667969 172.757812 C 544.667969 158.914062 533.402344 147.652344 519.5625 147.652344 " fill-opacity="1" fill-rule="nonzero"/><g clip-path="url(#124deceac3)"><path fill="#ffd5dc" d="M 490.867188 205.039062 C 490.867188 205.699219 490.328125 206.234375 489.671875 206.234375 C 489.011719 206.234375 488.476562 205.699219 488.476562 205.039062 L 488.476562 187.105469 L 490.867188 187.105469 Z M 493.257812 136.890625 L 493.257812 156.019531 C 493.257812 156.679688 492.722656 157.214844 492.0625 157.214844 L 490.867188 157.214844 L 490.867188 136.890625 L 488.476562 136.890625 L 488.476562 157.214844 L 487.28125 157.214844 C 486.621094 157.214844 486.085938 156.679688 486.085938 156.019531 L 486.085938 136.890625 L 483.691406 136.890625 L 483.691406 156.019531 C 483.691406 157.992188 485.308594 159.605469 487.28125 159.605469 L 488.476562 159.605469 L 488.476562 184.714844 L 487.28125 184.714844 C 486.621094 184.714844 486.085938 185.25 486.085938 185.910156 L 486.085938 205.039062 C 486.085938 207.011719 487.699219 208.625 489.671875 208.625 C 491.640625 208.625 493.257812 207.011719 493.257812 205.039062 L 493.257812 185.910156 C 493.257812 185.25 492.722656 184.714844 492.0625 184.714844 L 490.867188 184.714844 L 490.867188 159.605469 L 492.0625 159.605469 C 494.039062 159.605469 495.648438 157.992188 495.648438 156.019531 L 495.648438 136.890625 L 493.257812 136.890625 " fill-opacity="1" fill-rule="nonzero"/></g><g clip-path="url(#f045b9d918)"><path fill="#ffd5dc" d="M 553.039062 182.324219 L 548.253906 182.324219 L 548.253906 145.257812 C 548.253906 142.378906 550.308594 139.949219 553.039062 139.402344 Z M 553.039062 205.039062 C 553.039062 205.699219 552.5 206.234375 551.84375 206.234375 C 551.183594 206.234375 550.648438 205.699219 550.648438 205.039062 L 550.648438 184.714844 L 553.039062 184.714844 Z M 554.234375 136.890625 C 549.621094 136.890625 545.863281 140.644531 545.863281 145.257812 L 545.863281 183.519531 C 545.863281 184.175781 546.402344 184.714844 547.058594 184.714844 L 548.253906 184.714844 L 548.253906 205.039062 C 548.253906 207.011719 549.867188 208.625 551.84375 208.625 C 553.816406 208.625 555.429688 207.011719 555.429688 205.039062 L 555.429688 138.085938 C 555.429688 137.425781 554.890625 136.890625 554.234375 136.890625 " fill-opacity="1" fill-rule="nonzero"/></g><path fill="#ffd5dc" d="M 519.554688 184.398438 C 515.304688 181.042969 506.410156 172.792969 506.410156 166.78125 C 506.410156 163.484375 509.089844 160.800781 512.386719 160.800781 C 515.683594 160.800781 518.367188 163.484375 518.367188 166.78125 C 518.367188 167.4375 518.902344 167.976562 519.5625 167.976562 C 520.21875 167.976562 520.757812 167.4375 520.757812 166.78125 C 520.757812 163.484375 523.4375 160.800781 526.734375 160.800781 C 530.03125 160.800781 532.710938 163.484375 532.710938 166.78125 C 532.710938 173.4375 522.390625 182.132812 519.554688 184.398438 Z M 526.734375 158.410156 C 523.695312 158.410156 521.027344 160.042969 519.5625 162.472656 C 518.09375 160.042969 515.429688 158.410156 512.386719 158.410156 C 507.773438 158.410156 504.019531 162.167969 504.019531 166.78125 C 504.019531 175.644531 518.238281 186.414062 518.847656 186.867188 C 519.058594 187.027344 519.308594 187.105469 519.5625 187.105469 C 519.8125 187.105469 520.066406 187.027344 520.277344 186.867188 C 520.882812 186.414062 535.105469 175.644531 535.105469 166.78125 C 535.105469 162.167969 531.347656 158.410156 526.734375 158.410156 " fill-opacity="1" fill-rule="nonzero"/><path fill="#ffd5dc" d="M 705.886719 195.476562 C 693.359375 195.476562 683.171875 185.285156 683.171875 172.757812 C 683.171875 160.234375 693.359375 150.042969 705.886719 150.042969 C 718.414062 150.042969 728.601562 160.234375 728.601562 172.757812 C 728.601562 185.285156 718.414062 195.476562 705.886719 195.476562 Z M 705.886719 147.652344 C 692.042969 147.652344 680.777344 158.914062 680.777344 172.757812 C 680.777344 186.601562 692.042969 197.867188 705.886719 197.867188 C 719.730469 197.867188 730.992188 186.601562 730.992188 172.757812 C 730.992188 158.914062 719.730469 147.652344 705.886719 147.652344 " fill-opacity="1" fill-rule="nonzero"/><g clip-path="url(#275e9de0b7)"><path fill="#ffd5dc" d="M 677.191406 205.039062 C 677.191406 205.699219 676.65625 206.234375 675.996094 206.234375 C 675.339844 206.234375 674.800781 205.699219 674.800781 205.039062 L 674.800781 187.105469 L 677.191406 187.105469 Z M 679.582031 136.890625 L 679.582031 156.019531 C 679.582031 156.679688 679.046875 157.214844 678.386719 157.214844 L 677.191406 157.214844 L 677.191406 136.890625 L 674.800781 136.890625 L 674.800781 157.214844 L 673.605469 157.214844 C 672.945312 157.214844 672.410156 156.679688 672.410156 156.019531 L 672.410156 136.890625 L 670.019531 136.890625 L 670.019531 156.019531 C 670.019531 157.992188 671.632812 159.605469 673.605469 159.605469 L 674.800781 159.605469 L 674.800781 184.714844 L 673.605469 184.714844 C 672.945312 184.714844 672.410156 185.25 672.410156 185.910156 L 672.410156 205.039062 C 672.410156 207.011719 674.027344 208.625 675.996094 208.625 C 677.96875 208.625 679.582031 207.011719 679.582031 205.039062 L 679.582031 185.910156 C 679.582031 185.25 679.046875 184.714844 678.386719 184.714844 L 677.191406 184.714844 L 677.191406 159.605469 L 678.386719 159.605469 C 680.363281 159.605469 681.972656 157.992188 681.972656 156.019531 L 681.972656 136.890625 L 679.582031 136.890625 " fill-opacity="1" fill-rule="nonzero"/></g><g clip-path="url(#b906b210a0)"><path fill="#ffd5dc" d="M 739.363281 182.324219 L 734.582031 182.324219 L 734.582031 145.257812 C 734.582031 142.378906 736.636719 139.949219 739.363281 139.402344 Z M 739.363281 205.039062 C 739.363281 205.699219 738.824219 206.234375 738.167969 206.234375 C 737.507812 206.234375 736.972656 205.699219 736.972656 205.039062 L 736.972656 184.714844 L 739.363281 184.714844 Z M 740.558594 136.890625 C 735.945312 136.890625 732.191406 140.644531 732.191406 145.257812 L 732.191406 183.519531 C 732.191406 184.175781 732.726562 184.714844 733.386719 184.714844 L 734.582031 184.714844 L 734.582031 205.039062 C 734.582031 207.011719 736.191406 208.625 738.167969 208.625 C 740.144531 208.625 741.753906 207.011719 741.753906 205.039062 L 741.753906 138.085938 C 741.753906 137.425781 741.21875 136.890625 740.558594 136.890625 " fill-opacity="1" fill-rule="nonzero"/></g><path fill="#ffd5dc" d="M 705.882812 184.398438 C 701.632812 181.042969 692.734375 172.792969 692.734375 166.78125 C 692.734375 163.484375 695.414062 160.800781 698.710938 160.800781 C 702.011719 160.800781 704.691406 163.484375 704.691406 166.78125 C 704.691406 167.4375 705.226562 167.976562 705.886719 167.976562 C 706.542969 167.976562 707.082031 167.4375 707.082031 166.78125 C 707.082031 163.484375 709.761719 160.800781 713.058594 160.800781 C 716.355469 160.800781 719.039062 163.484375 719.039062 166.78125 C 719.039062 173.4375 708.714844 182.132812 705.882812 184.398438 Z M 713.058594 158.410156 C 710.019531 158.410156 707.351562 160.042969 705.886719 162.472656 C 704.421875 160.042969 701.753906 158.410156 698.710938 158.410156 C 694.097656 158.410156 690.34375 162.167969 690.34375 166.78125 C 690.34375 175.644531 704.566406 186.414062 705.171875 186.867188 C 705.382812 187.027344 705.632812 187.105469 705.886719 187.105469 C 706.136719 187.105469 706.390625 187.027344 706.601562 186.867188 C 707.207031 186.414062 721.429688 175.644531 721.429688 166.78125 C 721.429688 162.167969 717.675781 158.410156 713.058594 158.410156 " fill-opacity="1" fill-rule="nonzero"/></svg>